HIERARCHY
ROOT Hips
{
	OFFSET 0.000000 0.000000 0.000000
	CHANNELS 6 Xposition Yposition Zposition Zrotation Yrotation Xrotation 
	JOINT LeftUpLeg_virtual
	{
		OFFSET 0.000000 0.000000 0.000000
		CHANNELS 3 Zrotation Yrotation Xrotation
		JOINT LeftUpLeg
		{
			OFFSET 10.205400 -3.823500 0.155100
			CHANNELS 3 Zrotation Yrotation Xrotation
			JOINT LeftLeg
			{
				OFFSET 0.708757 -12.982077 0.567790
				CHANNELS 3 Zrotation Yrotation Xrotation
				JOINT LeftFoot
				{
					OFFSET -0.708756 -10.717838 -2.184338
					CHANNELS 3 Zrotation Yrotation Xrotation
					JOINT LeftToeBase
					{
						OFFSET 0.108149 -7.191104 7.560241
						CHANNELS 3 Zrotation Yrotation Xrotation
						End Site
						{
							OFFSET 0.000000 0.000000 0.000000
						}
					}
				}
			}
		}
	}
	JOINT RightUpLeg_virtual
	{
		OFFSET 0.000000 0.000000 0.000000
		CHANNELS 3 Zrotation Yrotation Xrotation
		JOINT RightUpLeg
		{
			OFFSET -10.205400 -3.823500 0.005500
			CHANNELS 3 Zrotation Yrotation Xrotation
			JOINT RightLeg
			{
				OFFSET -0.708756 -12.982134 0.610632
				CHANNELS 3 Zrotation Yrotation Xrotation
				JOINT RightFoot
				{
					OFFSET 0.708754 -10.717769 -1.945823
					CHANNELS 3 Zrotation Yrotation Xrotation
					JOINT RightToeBase
					{
						OFFSET -0.108140 -7.191069 7.372968
						CHANNELS 3 Zrotation Yrotation Xrotation
						End Site
						{
							OFFSET 0.000000 0.000000 0.000000
						}
					}
				}
			}
		}
	}
	JOINT Spine_virtual
	{
		OFFSET 0.000000 0.000000 0.000000
		CHANNELS 3 Zrotation Yrotation Xrotation
		JOINT Spine
		{
			OFFSET 0.000000 6.876099 0.125700
			CHANNELS 3 Zrotation Yrotation Xrotation
			JOINT Spine1
			{
				OFFSET 0.000000 8.022060 0.146608
				CHANNELS 3 Zrotation Yrotation Xrotation
				JOINT Spine2
				{
					OFFSET 0.000000 9.168068 0.167552
					CHANNELS 3 Zrotation Yrotation Xrotation
					JOINT Neck_virtual
					{
						OFFSET 0.000000 0.000000 0.000000
						CHANNELS 3 Zrotation Yrotation Xrotation
						JOINT Neck
						{
							OFFSET 0.000000 10.314075 0.188496
							CHANNELS 3 Zrotation Yrotation Xrotation
							JOINT Head
							{
								OFFSET 0.000000 7.643700 -2.377400
								CHANNELS 3 Zrotation Yrotation Xrotation
								End Site
								{
									OFFSET 0.000000 0.000000 0.000000
								}
							}
						}
					}
					JOINT LeftShoulder_virtual
					{
						OFFSET 0.000000 0.000000 0.000000
						CHANNELS 3 Zrotation Yrotation Xrotation
						JOINT LeftShoulder
						{
							OFFSET 4.392200 8.824978 0.174984
							CHANNELS 3 Zrotation Yrotation Xrotation
							JOINT LeftArm
							{
								OFFSET 8.771219 -2.981674 -0.026999
								CHANNELS 3 Zrotation Yrotation Xrotation
								JOINT LeftForeArm
								{
									OFFSET 8.512804 0.000000 -0.000000
									CHANNELS 3 Zrotation Yrotation Xrotation
									JOINT LeftHand
									{
										OFFSET 18.484802 0.000000 -0.000000
										CHANNELS 3 Zrotation Yrotation Xrotation
										End Site
										{
											OFFSET 0.000000 0.000000 0.000000
										}
									}
								}
							}
						}
					}
					JOINT RightShoulder_virtual
					{
						OFFSET 0.000000 0.000000 0.000000
						CHANNELS 3 Zrotation Yrotation Xrotation
						JOINT RightShoulder
						{
							OFFSET -4.392200 8.824993 0.141379
							CHANNELS 3 Zrotation Yrotation Xrotation
							JOINT RightArm
							{
								OFFSET -8.771282 -2.981682 -0.094208
								CHANNELS 3 Zrotation Yrotation Xrotation
								JOINT RightForeArm
								{
									OFFSET -8.494598 0.000000 0.000000
									CHANNELS 3 Zrotation Yrotation Xrotation
									JOINT RightHand
									{
										OFFSET -18.483803 0.000000 0.000001
										CHANNELS 3 Zrotation Yrotation Xrotation
										End Site
										{
											OFFSET 0.000000 0.000000 0.000000
										}
									}
								}
							}
						}
					}
				}
			}
		}
	}
}
MOTION
Frames: 10
Frame Time: 0.033333
1.610090 36.535015 -7.781270 179.963928 -4.446314 179.641816 -6.715750 -4.764757 15.459394 5.870023 -1.882279 -24.471082 0.285248 3.694687 27.341681 1.043130 -2.229505 4.051112 0.000000 0.000000 0.000000 -2.652743 -6.652169 13.616281 -0.761610 -13.692616 -11.578421 -8.673684 -2.739220 13.691931 12.764936 2.556467 18.290225 0.000000 0.000000 0.000000 -4.769915 -3.273745 10.487580 -9.943471 3.843889 -10.090133 1.698063 -1.581598 6.293011 0.022496 -0.033679 -0.061690 1.607579 0.032568 8.599576 18.852664 -10.074251 5.462577 0.000000 0.000000 0.000000 2.336583 0.871046 5.214329 -7.646691 -8.992588 -1.513648 -52.691590 14.943824 -8.258231 4.233248 -45.057757 1.115373 0.000000 0.000000 0.000000 -0.569504 1.600827 4.032851 2.587624 -3.458214 -11.679584 17.731263 4.120667 -53.095063 -12.484080 43.098972 -7.366197 0.000000 0.000000 0.000000 
1.330720 36.495174 -7.913383 179.963286 -3.900872 179.653127 -6.887837 -4.548402 15.472426 5.114093 -1.123168 -24.467481 0.492177 3.626503 28.071659 1.270173 -2.523104 3.576314 0.000000 0.000000 0.000000 -2.667997 -6.444978 13.654008 -1.377822 -12.998982 -11.454313 -8.859085 -2.393675 13.469211 13.182455 2.720262 18.357839 0.000000 0.000000 0.000000 -4.776713 -3.139546 10.566563 -9.725077 3.873813 -10.019035 1.694948 -1.689778 6.332746 0.021976 -0.067698 -0.073822 1.620539 -0.003062 8.639306 18.843631 -10.157810 5.884315 0.000000 0.000000 0.000000 2.317873 0.753820 5.228754 -7.533355 -9.207898 -1.410599 -52.733391 14.731960 -7.329736 4.177839 -43.523895 1.336904 0.000000 0.000000 0.000000 -0.543696 1.511388 4.015560 2.315128 -3.368789 -11.446623 17.962300 4.316907 -53.448699 -12.790785 42.622003 -7.392528 0.000000 0.000000 0.000000 
1.079874 36.484352 -8.025524 179.903604 -3.328774 179.704463 -7.081609 -4.223140 15.431392 4.424735 -0.488459 -24.396046 0.828245 3.542794 28.479908 1.404530 -2.867093 3.268979 0.000000 0.000000 0.000000 -2.637791 -6.088116 13.660310 -2.033981 -12.249832 -11.306532 -8.964432 -1.916260 13.173798 13.369534 2.755087 18.450250 0.000000 0.000000 0.000000 -4.782986 -3.007578 10.542262 -9.561126 3.940984 -10.013969 1.644450 -1.744134 6.328292 0.001858 -0.039328 -0.059250 1.623195 -0.362569 8.605317 18.765520 -10.103420 6.459131 0.000000 0.000000 0.000000 2.337345 0.616963 5.168277 -7.516126 -9.303644 -1.352923 -53.031744 14.516949 -6.749752 4.293316 -42.503711 1.275310 0.000000 0.000000 0.000000 -0.485086 1.389175 3.923413 2.126484 -3.251649 -11.149808 18.223373 4.505784 -53.884564 -13.073663 42.399274 -7.418300 0.000000 0.000000 0.000000 
0.855015 36.493557 -8.117975 179.971072 -3.062484 179.686527 -7.113554 -3.978266 15.357706 3.816240 -0.079205 -24.240285 1.177380 3.413965 28.693509 1.583091 -3.131165 3.206068 0.000000 0.000000 0.000000 -2.428721 -5.895829 13.788993 -2.625078 -11.689293 -11.102636 -9.139579 -1.430967 12.837601 13.695374 2.591900 18.549050 0.000000 0.000000 0.000000 -4.753285 -2.954894 10.583409 -9.369544 3.998984 -10.038873 1.673979 -1.817734 6.278526 0.020185 -0.014730 -0.059474 1.567388 -0.327497 8.620950 18.604327 -10.066993 6.975190 0.000000 0.000000 0.000000 2.268405 0.516625 5.148856 -7.599629 -9.252760 -1.264332 -53.559092 14.332416 -6.538336 4.397987 -41.954618 1.258062 0.000000 0.000000 0.000000 -0.510906 1.275190 3.952503 1.992137 -3.140866 -10.995631 18.749177 4.930676 -54.271461 -13.486740 42.469215 -7.516168 0.000000 0.000000 0.000000 
0.653922 36.511765 -8.200244 179.957712 -2.817880 179.688945 -7.175815 -3.707119 15.297383 3.173909 0.171425 -24.083298 1.533012 3.339015 28.698785 1.825137 -3.363830 3.276185 0.000000 0.000000 0.000000 -2.298372 -5.626671 13.953036 -3.200326 -11.245472 -10.984311 -9.094964 -0.823237 12.530878 13.767250 2.391819 18.703568 0.000000 0.000000 0.000000 -4.706044 -2.642477 10.595069 -9.267330 3.916970 -10.014085 1.635613 -1.912197 6.205292 0.005793 -0.086388 -0.038664 1.609620 -0.555328 8.579419 18.553343 -9.955008 7.496249 0.000000 0.000000 0.000000 2.280041 0.458778 5.079939 -7.692155 -9.065040 -1.397283 -54.178741 14.319790 -6.572057 4.479023 -41.746140 1.142409 0.000000 0.000000 0.000000 -0.478526 1.170504 3.912935 1.914151 -3.088213 -10.892521 19.271205 5.402041 -54.592227 -13.813149 42.776447 -7.794196 0.000000 0.000000 0.000000 
0.471189 36.532513 -8.273416 179.997491 -2.682975 179.693207 -7.189702 -3.543210 15.279273 2.541186 0.266041 -23.973064 1.883848 3.261690 28.625364 2.253131 -3.471693 3.404149 0.000000 0.000000 0.000000 -2.121793 -5.418978 14.065703 -3.826433 -11.122176 -10.966331 -9.080710 -0.753700 12.380942 14.249251 2.134924 18.824111 0.000000 0.000000 0.000000 -4.720096 -2.568350 10.502774 -9.175628 3.837596 -10.042219 1.670364 -1.953814 6.261048 0.004983 -0.097680 -0.065860 1.514787 -0.353910 8.561414 18.294356 -9.882548 7.999833 0.000000 0.000000 0.000000 2.230936 0.512426 4.968221 -7.782724 -8.725796 -1.423712 -54.863115 14.224719 -6.515619 4.477724 -41.646382 1.111864 0.000000 0.000000 0.000000 -0.526961 1.165779 3.862433 1.897490 -3.002822 -10.962521 19.829965 5.804478 -54.793888 -14.056774 43.084963 -7.953653 0.000000 0.000000 0.000000 
0.305853 36.553062 -8.340799 -179.988066 -2.582556 179.728546 -7.206819 -3.508192 15.340781 1.971429 0.225683 -23.943148 2.209315 3.263664 28.547604 2.785816 -3.595417 3.527046 0.000000 0.000000 0.000000 -1.935225 -5.281080 14.150575 -4.458854 -11.150972 -10.983643 -8.836795 -0.647715 12.339268 14.522835 2.037023 18.892988 0.000000 0.000000 0.000000 -4.708819 -2.583223 10.384823 -9.186215 3.757206 -10.064297 1.671587 -1.920795 6.273129 0.013319 -0.064484 -0.042735 1.545615 -0.420575 8.521753 18.203462 -9.735089 8.384307 0.000000 0.000000 0.000000 2.248248 0.492737 4.965415 -7.874967 -8.530753 -1.495533 -55.294288 13.942953 -6.355809 4.478298 -41.479199 1.040535 0.000000 0.000000 0.000000 -0.501642 1.185424 3.809364 1.801052 -3.054778 -10.949475 20.428783 5.987715 -55.024776 -14.251288 43.420066 -8.141414 0.000000 0.000000 0.000000 
0.168467 36.565765 -8.379478 179.978217 -2.570738 179.699695 -7.219085 -3.584099 15.464086 1.475150 0.055714 -23.972157 2.466904 3.297456 28.514312 3.408814 -3.738914 3.626754 0.000000 0.000000 0.000000 -1.885660 -5.350231 14.216672 -5.047580 -11.264016 -11.053044 -8.495006 -0.421745 12.453976 14.601578 1.979288 19.013269 0.000000 0.000000 0.000000 -4.714428 -2.695593 10.275785 -9.304975 3.634808 -10.112075 1.650771 -1.840459 6.261064 0.018782 -0.041661 -0.109354 1.586209 -0.360714 8.592530 18.109208 -9.432221 8.752070 0.000000 0.000000 0.000000 2.241304 0.524457 5.015574 -7.849262 -8.415633 -1.602405 -55.502599 13.496772 -5.995829 4.430139 -41.234839 0.989131 0.000000 0.000000 0.000000 -0.516100 1.195673 3.826958 1.699411 -3.189066 -10.930377 20.921920 6.020215 -55.058609 -14.206204 43.732837 -8.086694 0.000000 0.000000 0.000000 
0.068371 36.578724 -8.392149 -179.965608 -2.495561 179.718533 -7.150588 -3.667705 15.588730 1.133602 -0.147603 -24.059799 2.667822 3.355592 28.464977 4.049585 -3.929678 3.704237 0.000000 0.000000 0.000000 -1.693632 -5.337126 14.206339 -5.667854 -11.583599 -11.210371 -8.202419 -0.890308 12.813638 15.041687 1.815769 19.159116 0.000000 0.000000 0.000000 -4.603706 -2.616597 10.154571 -9.445397 3.410258 -10.198062 1.645667 -1.824445 6.249810 0.015762 -0.079881 -0.056223 1.549437 -0.205845 8.557898 18.015853 -9.366628 8.994057 0.000000 0.000000 0.000000 2.222134 0.597812 4.910214 -7.808580 -8.302428 -1.625073 -55.417122 12.925399 -5.499710 4.416750 -40.969903 0.871769 0.000000 0.000000 0.000000 -0.505972 1.318302 3.766994 1.599780 -3.347352 -11.107331 21.349631 5.818283 -55.014957 -14.206482 43.992524 -8.183899 0.000000 0.000000 0.000000 
0.000099 36.583351 -8.389273 179.943738 -2.589998 179.726060 -7.122042 -3.714400 15.659571 0.861151 -0.446535 -24.162943 2.876956 3.449657 28.356987 4.536301 -4.240970 3.762349 0.000000 0.000000 0.000000 -1.653437 -5.352817 14.231858 -6.125188 -11.989847 -11.308065 -7.618568 -0.539185 13.001843 14.720260 2.009723 19.008278 0.000000 0.000000 0.000000 -4.531497 -2.620942 9.987140 -9.664602 3.136442 -10.251940 1.575088 -1.818501 6.239228 0.000927 -0.135291 -0.028732 1.508339 -0.193857 8.441792 17.884301 -9.098811 9.120673 0.000000 0.000000 0.000000 2.242344 0.709983 4.884959 -7.690163 -8.198466 -1.658605 -55.157326 12.316058 -5.059729 4.353575 -40.673479 0.782555 0.000000 0.000000 0.000000 -0.511433 1.467609 3.823733 1.430503 -3.545780 -10.985155 21.745287 5.562004 -54.898352 -14.004933 44.323505 -8.194564 0.000000 0.000000 0.000000 
